<?xml version="1.0" encoding="UTF-8" standalone="no"?>
<svg
   xmlns:dc="http://purl.org/dc/elements/1.1/"
   xmlns:cc="http://creativecommons.org/ns#"
   xmlns:rdf="http://www.w3.org/1999/02/22-rdf-syntax-ns#"
   xmlns:svg="http://www.w3.org/2000/svg"
   xmlns="http://www.w3.org/2000/svg"
   xmlns:sodipodi="http://sodipodi.sourceforge.net/DTD/sodipodi-0.dtd"
   xmlns:inkscape="http://www.inkscape.org/namespaces/inkscape"
   enable-background="new 0 0 752 336"
   version="1.1"
   viewBox="0 0 57.94369 19.461002"
   xml:space="preserve"
   id="svg2"
   inkscape:version="0.91 r13725"
   sodipodi:docname="firebase.svg"
   width="57.943691"
   height="19.461002"><metadata
     id="metadata58"><rdf:RDF><cc:Work
         rdf:about=""><dc:format>image/svg+xml</dc:format><dc:type
           rdf:resource="http://purl.org/dc/dcmitype/StillImage" /><dc:title></dc:title><dc:title></dc:title></cc:Work></rdf:RDF></metadata><defs
     id="defs56" /><sodipodi:namedview
     pagecolor="#ffffff"
     bordercolor="#666666"
     borderopacity="1"
     objecttolerance="10"
     gridtolerance="10"
     guidetolerance="10"
     inkscape:pageopacity="0"
     inkscape:pageshadow="2"
     inkscape:window-width="763"
     inkscape:window-height="480"
     id="namedview54"
     showgrid="false"
     inkscape:zoom="2.2094003"
     inkscape:cx="-27.47375"
     inkscape:cy="13.452235"
     inkscape:window-x="83"
     inkscape:window-y="242"
     inkscape:window-maximized="0"
     inkscape:current-layer="svg2"
     fit-margin-top="0"
     fit-margin-left="0"
     fit-margin-right="0"
     fit-margin-bottom="0" /><style
     type="text/css"
     id="style4">
	.st0{fill:#FFFFFF;}
	.st1{opacity:0.7;}
	.st2{fill:none;}
	.st3{clip-path:url(#SVGID_2_);}
	.st4{fill:#FFA000;}
	.st5{opacity:0.12;fill:url(#SVGID_3_);enable-background:new    ;}
	.st6{fill:#F57C00;}
	.st7{opacity:0.2;fill:url(#SVGID_4_);enable-background:new    ;}
	.st8{fill:#FFCA28;}
	.st9{fill:#FFFFFF;fill-opacity:0.2;}
	.st10{opacity:0.2;fill:#A52714;enable-background:new    ;}
	.st11{fill:url(#SVGID_5_);}
	.st12{opacity:0.54;}
	.st13{clip-path:url(#SVGID_7_);}
	.st14{opacity:0.12;fill:url(#SVGID_8_);enable-background:new    ;}
	.st15{opacity:0.2;fill:url(#SVGID_9_);enable-background:new    ;}
	.st16{fill:url(#SVGID_10_);}
	.st17{display:none;}
	.st18{display:inline;fill:#00FFFF;fill-opacity:0.2;}
</style><path
     class="st0"
     d="M 0.401936,13.749826 2.028358,3.327623 C 2.084438,2.972431 2.561155,2.888304 2.729404,3.206114 l 1.74794,3.27154 -4.075408,7.272172 z M 11.964504,16.282934 10.412856,6.683293 C 10.366121,6.384184 9.992229,6.262666 9.777241,6.477654 L 0,16.282934 l 5.412068,3.03786 c 0.336501,0.186945 0.757128,0.186945 1.093629,0 l 5.458807,-3.03786 z M 7.571287,7.907788 6.318753,5.524234 c -0.140209,-0.271071 -0.523445,-0.271071 -0.663654,0 L 0.149562,15.338861 7.571287,7.907788 Z"
     id="path6"
     style="fill:#ffffff"
     inkscape:connector-curvature="0" /><path
     class="st0"
     d="m 17.946751,15.909041 -1.102977,0 0,-8.562094 5.000784,0 0,1.056243 -3.897807,0 0,2.813529 3.523919,0 0,1.028199 -3.514571,0 0,3.664123 z"
     id="path8"
     style="fill:#ffffff"
     inkscape:connector-curvature="0" /><path
     class="st0"
     d="m 23.742051,8.580786 c -0.14955,0.149561 -0.3365,0.224339 -0.55149,0.224339 -0.214982,0 -0.401926,-0.07478 -0.551488,-0.224339 -0.149552,-0.149553 -0.224331,-0.336501 -0.224331,-0.551489 0,-0.214983 0.07478,-0.401927 0.224331,-0.551488 0.149562,-0.149553 0.336506,-0.224331 0.551488,-0.224331 0.21499,0 0.40194,0.07478 0.55149,0.224331 0.14956,0.149561 0.22434,0.336505 0.22434,0.551488 0,0.214988 -0.0748,0.392588 -0.22434,0.551489 z m 0,7.328255 -1.102978,0 0,-5.860734 1.102978,0 0,5.860734 z"
     id="path10"
     style="fill:#ffffff"
     inkscape:connector-curvature="0" /><path
     class="st0"
     d="m 26.041481,15.909041 -1.10298,0 0,-5.860734 1.05624,0 0,0.95342 0.0467,0 c 0.11217,-0.317805 0.3365,-0.579527 0.6917,-0.785167 0.34584,-0.20564 0.68235,-0.308457 1.0095,-0.308457 0.32716,0 0.59823,0.04673 0.82256,0.140204 l -0.42063,1.028199 c -0.14021,-0.05608 -0.3365,-0.08412 -0.58888,-0.08412 -0.40193,0 -0.74778,0.1589 -1.05624,0.476706 -0.30846,0.317809 -0.45801,0.729089 -0.45801,1.233842 l 0,3.206109 z"
     id="path12"
     style="fill:#ffffff"
     inkscape:connector-curvature="0" /><path
     class="st0"
     d="m 31.219861,16.105338 c -0.88799,0 -1.60772,-0.299114 -2.15921,-0.88799 -0.55149,-0.58888 -0.83191,-1.33666 -0.83191,-2.233998 0,-0.850602 0.27107,-1.589035 0.80386,-2.205954 0.54214,-0.616919 1.22449,-0.925381 2.06575,-0.925381 0.86929,0 1.56099,0.280419 2.08444,0.850603 0.52344,0.570184 0.78517,1.327312 0.78517,2.271385 l -0.009,0.205639 -4.6269,0 c 0.028,0.58888 0.23368,1.056242 0.58888,1.402091 0.36454,0.345849 0.78517,0.514097 1.27123,0.514097 0.78517,0 1.32731,-0.336501 1.60773,-1.009503 l 0.98146,0.41128 c -0.18694,0.458014 -0.50475,0.831907 -0.94407,1.140368 -0.43933,0.308458 -0.98147,0.467363 -1.61708,0.467363 z m 1.57969,-3.832381 c -0.028,-0.336501 -0.1776,-0.654306 -0.45802,-0.95342 -0.28041,-0.299114 -0.70104,-0.458019 -1.26188,-0.458019 -0.41128,0 -0.75712,0.130866 -1.05624,0.383241 -0.29911,0.252374 -0.50475,0.598223 -0.61691,1.028198 l 3.39305,0 z"
     id="path14"
     style="fill:#ffffff"
     inkscape:connector-curvature="0" /><path
     class="st0"
     d="m 37.837721,16.105338 c -0.44866,0 -0.85059,-0.09347 -1.20579,-0.289767 -0.3552,-0.186944 -0.61692,-0.429975 -0.79452,-0.719741 l -0.0467,0 0,0.813211 -1.05623,0 0,-8.562094 1.10297,0 0,2.70136 -0.0467,0.813211 0.0467,0 c 0.1776,-0.289761 0.43932,-0.523445 0.79452,-0.719737 0.3552,-0.186944 0.75713,-0.289766 1.20579,-0.289766 0.75714,0 1.41144,0.299114 1.96293,0.897342 0.55149,0.598224 0.82256,1.336656 0.82256,2.224646 0,0.887989 -0.27107,1.626422 -0.82256,2.224645 -0.55149,0.607576 -1.20579,0.90669 -1.96293,0.90669 z m -0.18694,-1.009508 c 0.5141,0 0.95342,-0.196292 1.31796,-0.579532 0.36455,-0.383236 0.55149,-0.897333 0.55149,-1.532948 0,-0.635614 -0.18694,-1.149716 -0.55149,-1.532952 -0.36454,-0.383236 -0.80386,-0.579532 -1.31796,-0.579532 -0.5141,0 -0.96277,0.186948 -1.31796,0.570184 -0.3552,0.383241 -0.54215,0.897338 -0.54215,1.5423 0,0.644959 0.17761,1.15906 0.54215,1.5423 0.36454,0.383236 0.80386,0.57018 1.31796,0.57018 z"
     id="path16"
     style="fill:#ffffff"
     inkscape:connector-curvature="0" /><path
     class="st0"
     d="m 43.361961,16.105338 c -0.62627,0 -1.14037,-0.177601 -1.56099,-0.542145 -0.42063,-0.355193 -0.62627,-0.831907 -0.62627,-1.420783 0,-0.63561 0.24303,-1.140364 0.73843,-1.504908 0.49541,-0.364545 1.10298,-0.542141 1.83207,-0.542141 0.64496,0 1.17775,0.121513 1.58903,0.355197 l 0,-0.168253 c 0,-0.429971 -0.14955,-0.775824 -0.43932,-1.037546 -0.29911,-0.261723 -0.65431,-0.392584 -1.08428,-0.392584 -0.31781,0 -0.60758,0.07478 -0.8693,0.224331 -0.26172,0.149557 -0.43932,0.355201 -0.53279,0.626267 l -1.00951,-0.429971 c 0.14021,-0.355201 0.40194,-0.673006 0.80387,-0.972116 0.40193,-0.299114 0.92538,-0.448671 1.57968,-0.448671 0.74779,0 1.37405,0.214988 1.86946,0.654311 0.4954,0.439319 0.73843,1.056242 0.73843,1.850757 l 0,3.551958 -1.05624,0 0,-0.813211 -0.0467,0 c -0.43932,0.673007 -1.08428,1.009508 -1.92553,1.009508 z m 0.1776,-1.009508 c 0.45801,0 0.86929,-0.168248 1.23384,-0.504753 0.37388,-0.336501 0.56083,-0.738433 0.56083,-1.205795 -0.30846,-0.252375 -0.77582,-0.383236 -1.40209,-0.383236 -0.53279,0 -0.93473,0.112166 -1.2058,0.345849 -0.27106,0.233679 -0.41128,0.504749 -0.41128,0.813211 0,0.289766 0.12152,0.514097 0.3739,0.68235 0.25237,0.168248 0.53279,0.252374 0.8506,0.252374 z"
     id="path18"
     style="fill:#ffffff"
     inkscape:connector-curvature="0" /><path
     class="st0"
     d="m 49.447031,16.105338 c -0.65431,0 -1.19645,-0.158905 -1.61708,-0.476711 -0.42997,-0.317809 -0.73843,-0.719741 -0.93473,-1.196451 l 0.98147,-0.411279 c 0.30846,0.738432 0.84125,1.102977 1.58903,1.102977 0.34585,0 0.62627,-0.07478 0.84126,-0.224336 0.21498,-0.149556 0.32715,-0.355196 0.32715,-0.598223 0,-0.38324 -0.27107,-0.644963 -0.80386,-0.775824 l -1.18711,-0.289766 c -0.37389,-0.09347 -0.72909,-0.280414 -1.06559,-0.542141 -0.3365,-0.27107 -0.50475,-0.626267 -0.50475,-1.084281 0,-0.514101 0.23368,-0.934729 0.6917,-1.261882 0.45802,-0.327153 1.00016,-0.486058 1.63577,-0.486058 0.5141,0 0.98147,0.121514 1.3834,0.355197 0.41128,0.233679 0.70104,0.57018 0.86929,1.009503 l -0.95342,0.392588 c -0.21499,-0.514102 -0.66366,-0.775824 -1.33666,-0.775824 -0.32715,0 -0.59822,0.06543 -0.82256,0.20564 -0.22433,0.140209 -0.3365,0.317805 -0.3365,0.551488 0,0.336501 0.26172,0.560837 0.77582,0.68235 l 1.15906,0.27107 c 0.55149,0.130862 0.95342,0.345849 1.22449,0.654311 0.26173,0.308457 0.39259,0.663654 0.39259,1.056238 0,0.523449 -0.21498,0.962768 -0.64496,1.317969 -0.42997,0.355192 -0.98146,0.523445 -1.66381,0.523445 z"
     id="path20"
     style="fill:#ffffff"
     inkscape:connector-curvature="0" /><path
     class="st0"
     d="m 55.195601,16.105338 c -0.88799,0 -1.60774,-0.299114 -2.15922,-0.88799 -0.55149,-0.58888 -0.83191,-1.33666 -0.83191,-2.233998 0,-0.850602 0.27107,-1.589035 0.80387,-2.205954 0.54213,-0.616919 1.22448,-0.925381 2.06574,-0.925381 0.8693,0 1.56099,0.280419 2.08444,0.850603 0.52345,0.570184 0.78517,1.327312 0.78517,2.271385 l -0.009,0.205639 -4.6269,0 c 0.028,0.58888 0.23368,1.056242 0.58888,1.402091 0.36454,0.345849 0.78517,0.514097 1.27123,0.514097 0.78517,0 1.32731,-0.336501 1.60773,-1.009503 l 0.98146,0.41128 c -0.18695,0.458014 -0.50475,0.831907 -0.94407,1.140368 -0.43932,0.308458 -0.98147,0.467363 -1.61708,0.467363 z m 1.57968,-3.832381 c -0.028,-0.336501 -0.1776,-0.654306 -0.45801,-0.95342 -0.28042,-0.299114 -0.70105,-0.458019 -1.26188,-0.458019 -0.41128,0 -0.75713,0.130866 -1.05625,0.383241 -0.29911,0.252374 -0.50475,0.598223 -0.61692,1.028198 l 3.39306,0 z"
     id="path22"
     style="fill:#ffffff"
     inkscape:connector-curvature="0" /><path
     class="st0"
     d="m 16.768996,4.056712 0,-4.01932 1.448826,0 c 0.317805,0 0.588875,0.102818 0.813211,0.308457 0.233683,0.20564 0.345848,0.467363 0.345848,0.785172 0,0.186944 -0.04674,0.355192 -0.149556,0.504754 -0.102822,0.149552 -0.233684,0.252374 -0.392584,0.327148 l 0,0.01871 c 0.196292,0.06543 0.36454,0.186944 0.486058,0.345849 0.130861,0.168252 0.186944,0.355196 0.186944,0.570184 0,0.327153 -0.121514,0.598223 -0.364545,0.822559 -0.243027,0.214987 -0.523449,0.327153 -0.850598,0.327153 l -1.523604,0 z m 0.514097,-2.290076 0.934729,0 c 0.196292,0 0.355192,-0.06544 0.467362,-0.196296 C 18.806697,1.439479 18.86278,1.299269 18.86278,1.149712 18.86278,1.00016 18.8067,0.859946 18.694532,0.729085 18.582366,0.598224 18.432805,0.542141 18.245861,0.542141 l -0.962768,0 0,1.224495 z m 0,1.804018 1.037546,0 c 0.196292,0 0.355197,-0.06543 0.486058,-0.20564 0.121514,-0.140209 0.186944,-0.289761 0.186944,-0.458014 0,-0.168248 -0.06543,-0.31781 -0.186944,-0.448671 C 18.675836,2.318124 18.516931,2.25269 18.311292,2.25269 l -1.018851,0 0,1.317964 z"
     id="path24"
     style="fill:#ffffff"
     inkscape:connector-curvature="0" /><path
     class="st0"
     d="m 22.545604,4.056712 -0.495406,0 0,-0.383236 -0.0187,0 c -0.07478,0.130861 -0.196292,0.243027 -0.355197,0.336501 -0.158905,0.09347 -0.327153,0.140209 -0.514102,0.140209 -0.345848,0 -0.607571,-0.102822 -0.785167,-0.317809 -0.177596,-0.205636 -0.27107,-0.486054 -0.27107,-0.841251 l 0,-1.682509 0.514101,0 0,1.598383 c 0,0.514101 0.224331,0.766476 0.68235,0.766476 0.214983,0 0.383236,-0.08413 0.523445,-0.261727 0.130861,-0.168248 0.20564,-0.373888 0.20564,-0.598223 l 0,-1.504909 0.514097,0 0,2.748095 z"
     id="path26"
     style="fill:#ffffff"
     inkscape:connector-curvature="0" /><path
     class="st0"
     d="m 23.798141,0.626267 c -0.0748,0.07478 -0.15891,0.102818 -0.26173,0.102818 -0.10282,0 -0.18694,-0.03741 -0.26172,-0.102818 -0.0748,-0.07478 -0.10282,-0.158904 -0.10282,-0.261722 0,-0.102822 0.03741,-0.186948 0.10282,-0.261727 C 23.349491,0.028048 23.433591,0 23.536411,0 c 0.10282,0 0.18695,0.03741 0.26173,0.102818 0.0748,0.07478 0.10281,0.158905 0.10281,0.261727 0,0.102818 -0.0374,0.186944 -0.10281,0.261722 z m 0,3.430445 -0.5141,0 0,-2.748095 0.5141,0 0,2.748095 z"
     id="path28"
     style="fill:#ffffff"
     inkscape:connector-curvature="0" /><path
     class="st0"
     d="m 25.041321,4.056712 -0.5141,0 0,-4.01932 0.5141,0 0,4.01932 z"
     id="path30"
     style="fill:#ffffff"
     inkscape:connector-curvature="0" /><path
     class="st0"
     d="m 26.882731,4.103451 c -0.28976,0 -0.50475,-0.07478 -0.6543,-0.233683 -0.14957,-0.149557 -0.22434,-0.373892 -0.22434,-0.654306 l 0,-1.430135 -0.48606,0 0,-0.467362 0.48606,0 0,-0.841254 0.5141,0 0,0.841254 0.673,0 0,0.467362 -0.673,0 0,1.402091 c 0,0.29911 0.12152,0.448667 0.37389,0.448667 0.0935,0 0.16825,-0.01871 0.23368,-0.04674 l 0.1776,0.439323 c -0.12152,0.05608 -0.26172,0.07478 -0.42063,0.07478 z"
     id="path32"
     style="fill:#ffffff"
     inkscape:connector-curvature="0" /><path
     class="st0"
     d="m 32.248061,4.056712 -0.52344,0 -0.68236,-2.11248 -0.68235,2.11248 -0.52344,0 -0.88799,-2.748095 0.54214,0 0.60757,2.075093 0.009,0 0.68235,-2.075093 0.5328,0 0.68235,2.075093 0.009,0 0.60757,-2.075093 0.52345,0 -0.89734,2.748095 z"
     id="path34"
     style="fill:#ffffff"
     inkscape:connector-curvature="0" /><path
     class="st0"
     d="m 34.098821,0.626267 c -0.0748,0.07478 -0.1589,0.102818 -0.26172,0.102818 -0.10282,0 -0.18695,-0.03741 -0.26173,-0.102818 -0.0748,-0.07478 -0.10281,-0.158904 -0.10281,-0.261722 0,-0.102822 0.0374,-0.186948 0.10281,-0.261727 C 33.650171,0.028048 33.734281,0 33.837101,0 c 0.10282,0 0.18694,0.03741 0.26172,0.102818 0.0748,0.07478 0.10282,0.158905 0.10282,0.261727 0,0.102818 -0.0374,0.186944 -0.10282,0.261722 z m 0,3.430445 -0.5141,0 0,-2.748095 0.5141,0 0,2.748095 z"
     id="path36"
     style="fill:#ffffff"
     inkscape:connector-curvature="0" /><path
     class="st0"
     d="m 35.958921,4.103451 c -0.28976,0 -0.50475,-0.07478 -0.66365,-0.233683 -0.14956,-0.149557 -0.22433,-0.373892 -0.22433,-0.654306 l 0,-1.430135 -0.48606,0 0,-0.467362 0.48606,0 0,-0.841254 0.5141,0 0,0.841254 0.673,0 0,0.467362 -0.673,0 0,1.402091 c 0,0.29911 0.12151,0.448667 0.37388,0.448667 0.0935,0 0.16826,-0.01871 0.23369,-0.04674 l 0.17759,0.439323 c -0.11216,0.05608 -0.24302,0.07478 -0.41128,0.07478 z"
     id="path38"
     style="fill:#ffffff"
     inkscape:connector-curvature="0" /><path
     class="st0"
     d="m 37.332971,0.046735 0,1.27123 -0.0187,0.383236 0.0187,0 c 0.0748,-0.130861 0.19629,-0.243027 0.3552,-0.336501 0.1589,-0.09347 0.3365,-0.140209 0.5141,-0.140209 0.3365,0 0.59822,0.102822 0.77582,0.317805 0.1776,0.205644 0.27107,0.486062 0.27107,0.841255 l 0,1.682509 -0.5141,0 0,-1.607731 c 0,-0.504749 -0.22433,-0.766472 -0.68235,-0.766472 -0.21499,0 -0.38323,0.08412 -0.52345,0.252375 -0.13086,0.168248 -0.20563,0.36454 -0.20563,0.588876 l 0,1.523604 -0.5141,0 0,-4.01932 0.52344,0 z"
     id="path40"
     style="fill:#ffffff"
     inkscape:connector-curvature="0" /><g
     class="st17"
     id="g42"
     style="display:none"
     transform="translate(-395.51922,-180.31071)"><rect
       class="st18"
       x="-0.60000002"
       y="272"
       width="753.20001"
       height="64"
       id="rect44"
       style="display:inline;fill:#00ffff;fill-opacity:0.2" /><rect
       class="st18"
       x="-0.60000002"
       width="753.20001"
       height="64"
       id="rect46"
       y="0"
       style="display:inline;fill:#00ffff;fill-opacity:0.2" /><rect
       class="st18"
       x="688.5"
       width="64"
       height="336"
       id="rect48"
       y="0"
       style="display:inline;fill:#00ffff;fill-opacity:0.2" /><rect
       class="st18"
       x="196.3"
       width="48"
       height="336"
       id="rect50"
       y="0"
       style="display:inline;fill:#00ffff;fill-opacity:0.2" /><rect
       class="st18"
       x="-0.5"
       width="64"
       height="336"
       id="rect52"
       y="0"
       style="display:inline;fill:#00ffff;fill-opacity:0.2" /></g></svg>