<?xml version="1.0" encoding="UTF-8" standalone="no"?>
<svg
   xmlns:dc="http://purl.org/dc/elements/1.1/"
   xmlns:cc="http://creativecommons.org/ns#"
   xmlns:rdf="http://www.w3.org/1999/02/22-rdf-syntax-ns#"
   xmlns:svg="http://www.w3.org/2000/svg"
   xmlns="http://www.w3.org/2000/svg"
   xmlns:sodipodi="http://sodipodi.sourceforge.net/DTD/sodipodi-0.dtd"
   xmlns:inkscape="http://www.inkscape.org/namespaces/inkscape"
   enable-background="new 0 0 752 336"
   version="1.1"
   viewBox="0 0 134.75787 45.259857"
   xml:space="preserve"
   id="svg2"
   inkscape:version="0.91 r13725"
   sodipodi:docname="firebase.svg"
   width="134.75787"
   height="45.259857"><metadata
     id="metadata58"><rdf:RDF><cc:Work
         rdf:about=""><dc:format>image/svg+xml</dc:format><dc:type
           rdf:resource="http://purl.org/dc/dcmitype/StillImage" /><dc:title></dc:title><dc:title></dc:title></cc:Work></rdf:RDF></metadata><defs
     id="defs56" /><sodipodi:namedview
     pagecolor="#ffffff"
     bordercolor="#666666"
     borderopacity="1"
     objecttolerance="10"
     gridtolerance="10"
     guidetolerance="10"
     inkscape:pageopacity="0"
     inkscape:pageshadow="2"
     inkscape:window-width="763"
     inkscape:window-height="480"
     id="namedview54"
     showgrid="false"
     inkscape:zoom="0.55235008"
     inkscape:cx="153.6472"
     inkscape:cy="56.974932"
     inkscape:window-x="211"
     inkscape:window-y="106"
     inkscape:window-maximized="0"
     inkscape:current-layer="svg2"
     fit-margin-top="0"
     fit-margin-left="0"
     fit-margin-right="0"
     fit-margin-bottom="0" /><style
     type="text/css"
     id="style4">
	.st0{fill:#FFFFFF;}
	.st1{opacity:0.7;}
	.st2{fill:none;}
	.st3{clip-path:url(#SVGID_2_);}
	.st4{fill:#FFA000;}
	.st5{opacity:0.12;fill:url(#SVGID_3_);enable-background:new    ;}
	.st6{fill:#F57C00;}
	.st7{opacity:0.2;fill:url(#SVGID_4_);enable-background:new    ;}
	.st8{fill:#FFCA28;}
	.st9{fill:#FFFFFF;fill-opacity:0.2;}
	.st10{opacity:0.2;fill:#A52714;enable-background:new    ;}
	.st11{fill:url(#SVGID_5_);}
	.st12{opacity:0.54;}
	.st13{clip-path:url(#SVGID_7_);}
	.st14{opacity:0.12;fill:url(#SVGID_8_);enable-background:new    ;}
	.st15{opacity:0.2;fill:url(#SVGID_9_);enable-background:new    ;}
	.st16{fill:url(#SVGID_10_);}
	.st17{display:none;}
	.st18{display:inline;fill:#00FFFF;fill-opacity:0.2;}
</style><path
     class="st0"
     d="M 0.93477,31.97755 4.71729,7.73895 C 4.84772,6.91289 5.9564,6.71724 6.34769,7.45636 l 4.06513,7.60852 -9.47805,16.91267 z M 27.82548,37.86872 24.21686,15.54313 C 24.10817,14.8475 23.23862,14.56489 22.73863,15.06488 L 0,37.86872 12.58668,44.93378 c 0.78259,0.43477 1.76083,0.43477 2.54342,0 L 27.82548,37.86872 Z M 17.60831,18.3909 14.69533,12.84754 c -0.32608,-0.63042 -1.21736,-0.63042 -1.54344,0 L 0.34783,35.67312 17.60831,18.3909 Z"
     id="path6"
     style="fill:#ffffff"
     inkscape:connector-curvature="0" /><path
     class="st0"
     d="m 41.73821,36.99917 -2.56516,0 0,-19.9126 11.63017,0 0,2.45647 -9.06501,0 0,6.54334 8.19547,0 0,2.39125 -8.17373,0 0,8.52154 z"
     id="path8"
     style="fill:#ffffff"
     inkscape:connector-curvature="0" /><path
     class="st0"
     d="m 55.21616,19.95607 c -0.34781,0.34783 -0.78259,0.52174 -1.28258,0.52174 -0.49998,0 -0.93475,-0.17391 -1.28258,-0.52174 -0.34781,-0.34781 -0.52172,-0.78259 -0.52172,-1.28258 0,-0.49998 0.17391,-0.93475 0.52172,-1.28258 0.34783,-0.34781 0.7826,-0.52172 1.28258,-0.52172 0.49999,0 0.93477,0.17391 1.28258,0.52172 0.34783,0.34783 0.52174,0.7826 0.52174,1.28258 0,0.49999 -0.17391,0.91303 -0.52174,1.28258 z m 0,17.0431 -2.56516,0 0,-13.63013 2.56516,0 0,13.63013 z"
     id="path10"
     style="fill:#ffffff"
     inkscape:connector-curvature="0" /><path
     class="st0"
     d="m 60.56388,36.99917 -2.56516,0 0,-13.63013 2.45646,0 0,2.21734 0.1087,0 c 0.26086,-0.73911 0.78258,-1.34779 1.60865,-1.82604 0.80433,-0.47825 1.58692,-0.71737 2.34778,-0.71737 0.76085,0 1.39127,0.10869 1.913,0.32607 l -0.97824,2.39125 c -0.32608,-0.13043 -0.78259,-0.19564 -1.36954,-0.19564 -0.93476,0 -1.73909,0.36955 -2.45647,1.10866 -0.71737,0.73912 -1.06518,1.69562 -1.06518,2.86951 l 0,7.45635 z"
     id="path12"
     style="fill:#ffffff"
     inkscape:connector-curvature="0" /><path
     class="st0"
     d="m 72.60708,37.45569 c -2.06517,0 -3.73904,-0.69564 -5.02162,-2.06517 -1.28258,-1.36954 -1.93475,-3.10863 -1.93475,-5.19554 0,-1.97822 0.63043,-3.69557 1.86953,-5.13032 1.26084,-1.43475 2.84776,-2.15213 4.80424,-2.15213 2.02169,0 3.63036,0.65216 4.84772,1.97822 1.21736,1.32606 1.82604,3.08689 1.82604,5.28249 l -0.0217,0.47825 -10.76063,0 c 0.0652,1.36954 0.54347,2.45647 1.36954,3.2608 0.84781,0.80433 1.82605,1.19562 2.95645,1.19562 1.82605,0 3.08689,-0.78259 3.73905,-2.34777 l 2.28256,0.9565 c -0.43477,1.06519 -1.17389,1.93474 -2.1956,2.65212 -1.02172,0.71737 -2.28256,1.08693 -3.76079,1.08693 z m 3.67383,-8.91285 c -0.0652,-0.78259 -0.41303,-1.5217 -1.06519,-2.21734 -0.65216,-0.69564 -1.6304,-1.0652 -2.93472,-1.0652 -0.9565,0 -1.76082,0.30435 -2.45647,0.89129 -0.69563,0.58694 -1.17388,1.39127 -1.43474,2.39125 l 7.89112,0 z"
     id="path14"
     style="fill:#ffffff"
     inkscape:connector-curvature="0" /><path
     class="st0"
     d="m 87.99804,37.45569 c -1.04345,0 -1.97821,-0.21739 -2.80428,-0.6739 -0.82607,-0.43477 -1.43475,-0.99998 -1.84778,-1.67388 l -0.1087,0 0,1.89126 -2.45646,0 0,-19.9126 2.56516,0 0,6.28247 -0.1087,1.89126 0.1087,0 c 0.41303,-0.67389 1.02171,-1.21736 1.84778,-1.67387 0.82607,-0.43477 1.76083,-0.6739 2.80428,-0.6739 1.76084,0 3.28254,0.69564 4.56512,2.08692 1.28258,1.39127 1.913,3.10862 1.913,5.17379 0,2.06517 -0.63042,3.78252 -1.913,5.17379 -1.28258,1.41302 -2.80428,2.10866 -4.56512,2.10866 z m -0.43477,-2.34778 c 1.19562,0 2.21734,-0.45651 3.06515,-1.3478 0.84781,-0.89128 1.28258,-2.0869 1.28258,-3.56513 0,-1.47823 -0.43477,-2.67386 -1.28258,-3.56514 -0.84781,-0.89128 -1.86953,-1.3478 -3.06515,-1.3478 -1.19563,0 -2.23908,0.43478 -3.06515,1.32606 -0.82607,0.89129 -1.26084,2.08691 -1.26084,3.58688 0,1.49996 0.41304,2.69559 1.26084,3.58688 0.84781,0.89128 1.86952,1.32605 3.06515,1.32605 z"
     id="path16"
     style="fill:#ffffff"
     inkscape:connector-curvature="0" /><path
     class="st0"
     d="m 100.84558,37.45569 c -1.45649,0 -2.65211,-0.41304 -3.63035,-1.26085 -0.97824,-0.82606 -1.45649,-1.93474 -1.45649,-3.30427 0,-1.47822 0.5652,-2.65211 1.71735,-3.49992 1.15215,-0.84781 2.56516,-1.26084 4.26078,-1.26084 1.49996,0 2.73907,0.2826 3.69557,0.82607 l 0,-0.3913 c 0,-0.99997 -0.34782,-1.80431 -1.02172,-2.41299 -0.69564,-0.60868 -1.5217,-0.91302 -2.52168,-0.91302 -0.73912,0 -1.41302,0.17391 -2.0217,0.52172 -0.60868,0.34782 -1.02171,0.82608 -1.2391,1.45649 l -2.34777,-0.99997 c 0.32608,-0.82608 0.93476,-1.56519 1.86952,-2.26082 0.93476,-0.69564 2.15213,-1.04346 3.67383,-1.04346 1.7391,0 3.19558,0.49999 4.34773,1.52171 1.15215,1.02171 1.71736,2.45647 1.71736,4.30425 l 0,8.26068 -2.45647,0 0,-1.89126 -0.1087,0 c -1.02171,1.56519 -2.52168,2.34778 -4.47816,2.34778 z m 0.41304,-2.34778 c 1.06519,0 2.02169,-0.39129 2.8695,-1.17389 0.86954,-0.78259 1.30432,-1.71735 1.30432,-2.80428 -0.71738,-0.58694 -1.80431,-0.89128 -3.2608,-0.89128 -1.2391,0 -2.17387,0.26086 -2.80429,0.80433 -0.63041,0.54346 -0.9565,1.17388 -0.9565,1.89126 0,0.6739 0.28261,1.19562 0.86955,1.58692 0.58694,0.39129 1.2391,0.58694 1.97822,0.58694 z"
     id="path18"
     style="fill:#ffffff"
     inkscape:connector-curvature="0" /><path
     class="st0"
     d="m 114.99744,37.45569 c -1.52171,0 -2.78255,-0.36956 -3.76079,-1.10867 -0.99997,-0.73912 -1.71735,-1.67388 -2.17386,-2.78255 l 2.28256,-0.9565 c 0.71738,1.71735 1.95647,2.56516 3.69557,2.56516 0.80433,0 1.45649,-0.17391 1.95648,-0.52173 0.49999,-0.34782 0.76085,-0.82607 0.76085,-1.39127 0,-0.89129 -0.63042,-1.49997 -1.86952,-1.80431 l -2.76081,-0.6739 c -0.86955,-0.21738 -1.69562,-0.65215 -2.47821,-1.26084 -0.78259,-0.63042 -1.17388,-1.45649 -1.17388,-2.52168 0,-1.19563 0.54346,-2.17387 1.60866,-2.93472 1.06519,-0.76085 2.32603,-1.13041 3.80425,-1.13041 1.19564,0 2.28257,0.2826 3.21733,0.82607 0.9565,0.54346 1.6304,1.32605 2.02169,2.34777 l -2.21734,0.91303 c -0.49999,-1.19563 -1.54345,-1.80431 -3.10862,-1.80431 -0.76086,0 -1.39128,0.15217 -1.91301,0.47825 -0.52172,0.32608 -0.78259,0.73911 -0.78259,1.28258 0,0.78259 0.60868,1.30432 1.80431,1.58692 l 2.69559,0.63042 c 1.28258,0.30434 2.21734,0.80433 2.84776,1.52171 0.60869,0.71737 0.91303,1.54344 0.91303,2.45646 0,1.21737 -0.49999,2.23908 -1.49997,3.06516 -0.99998,0.82606 -2.28256,1.21736 -3.86948,1.21736 z"
     id="path20"
     style="fill:#ffffff"
     inkscape:connector-curvature="0" /><path
     class="st0"
     d="m 128.36671,37.45569 c -2.06517,0 -3.73905,-0.69564 -5.02163,-2.06517 -1.28258,-1.36954 -1.93474,-3.10863 -1.93474,-5.19554 0,-1.97822 0.63042,-3.69557 1.86953,-5.13032 1.26083,-1.43475 2.84775,-2.15213 4.80423,-2.15213 2.0217,0 3.63036,0.65216 4.84772,1.97822 1.21737,1.32606 1.82605,3.08689 1.82605,5.28249 l -0.0217,0.47825 -10.76063,0 c 0.0652,1.36954 0.54346,2.45647 1.36954,3.2608 0.8478,0.80433 1.82604,1.19562 2.95645,1.19562 1.82605,0 3.08689,-0.78259 3.73904,-2.34777 l 2.28257,0.9565 c -0.43478,1.06519 -1.17389,1.93474 -2.19561,2.65212 -1.02171,0.71737 -2.28256,1.08693 -3.76079,1.08693 z m 3.67383,-8.91285 c -0.0652,-0.78259 -0.41304,-1.5217 -1.06519,-2.21734 -0.65216,-0.69564 -1.6304,-1.0652 -2.93472,-1.0652 -0.9565,0 -1.76083,0.30435 -2.45647,0.89129 -0.69563,0.58694 -1.17389,1.39127 -1.43475,2.39125 l 7.89113,0 z"
     id="path22"
     style="fill:#ffffff"
     inkscape:connector-curvature="0" /><path
     class="st0"
     d="m 38.99914,9.43457 0,-9.34761 3.36949,0 c 0.73911,0 1.36953,0.23912 1.89126,0.71737 0.54347,0.47825 0.80433,1.08693 0.80433,1.82605 0,0.43477 -0.1087,0.82606 -0.34782,1.17389 -0.23913,0.34781 -0.54347,0.58694 -0.91302,0.76084 l 0,0.0435 c 0.45651,0.15217 0.8478,0.43477 1.13041,0.80433 0.30434,0.3913 0.43477,0.82607 0.43477,1.32606 0,0.76085 -0.2826,1.39127 -0.84781,1.913 -0.5652,0.49999 -1.21737,0.76085 -1.97821,0.76085 l -3.5434,0 z m 1.19562,-5.32596 2.17387,0 c 0.45651,0 0.82606,-0.15218 1.08693,-0.45652 0.2826,-0.30434 0.41303,-0.63042 0.41303,-0.97824 0,-0.34781 -0.13043,-0.6739 -0.39129,-0.97824 C 43.21644,1.39127 42.86861,1.26084 42.43384,1.26084 l -2.23908,0 0,2.84777 z m 0,4.19555 2.41299,0 c 0.45651,0 0.82607,-0.15217 1.13041,-0.47825 0.2826,-0.32608 0.43477,-0.67389 0.43477,-1.06519 0,-0.39129 -0.15217,-0.73912 -0.43477,-1.04346 -0.30434,-0.32607 -0.6739,-0.47825 -1.15215,-0.47825 l -2.36951,0 0,3.06515 z"
     id="path24"
     style="fill:#ffffff"
     inkscape:connector-curvature="0" /><path
     class="st0"
     d="m 52.43362,9.43457 -1.15215,0 0,-0.89128 -0.0435,0 c -0.17391,0.30434 -0.45651,0.5652 -0.82607,0.78259 -0.36956,0.21739 -0.76085,0.32608 -1.19563,0.32608 -0.80433,0 -1.41301,-0.23913 -1.82604,-0.73912 C 46.9772,8.4346 46.75981,7.78244 46.75981,6.95637 l 0,-3.91296 1.19563,0 0,3.71731 c 0,1.19563 0.52172,1.78257 1.58692,1.78257 0.49998,0 0.89128,-0.19565 1.21736,-0.60869 0.30434,-0.39129 0.47825,-0.86954 0.47825,-1.39127 l 0,-3.49992 1.19562,0 0,6.39116 z"
     id="path26"
     style="fill:#ffffff"
     inkscape:connector-curvature="0" /><path
     class="st0"
     d="m 55.3466,1.45649 c -0.17391,0.17391 -0.36956,0.23912 -0.60869,0.23912 -0.23912,0 -0.43477,-0.087 -0.60868,-0.23912 -0.1739,-0.17391 -0.23912,-0.36956 -0.23912,-0.60868 0,-0.23913 0.087,-0.43478 0.23912,-0.60869 C 54.30314,0.06522 54.49879,0 54.73791,0 c 0.23913,0 0.43478,0.087 0.60869,0.23912 0.1739,0.17391 0.23912,0.36956 0.23912,0.60869 0,0.23912 -0.087,0.43477 -0.23912,0.60868 z m 0,7.97808 -1.19562,0 0,-6.39116 1.19562,0 0,6.39116 z"
     id="path28"
     style="fill:#ffffff"
     inkscape:connector-curvature="0" /><path
     class="st0"
     d="m 58.23784,9.43457 -1.19563,0 0,-9.34761 1.19563,0 0,9.34761 z"
     id="path30"
     style="fill:#ffffff"
     inkscape:connector-curvature="0" /><path
     class="st0"
     d="m 62.52035,9.54327 c -0.67389,0 -1.17389,-0.17391 -1.5217,-0.54347 C 60.65082,8.65198 60.47692,8.13025 60.47692,7.4781 l 0,-3.32602 -1.13041,0 0,-1.08693 1.13041,0 0,-1.95648 1.19562,0 0,1.95648 1.56519,0 0,1.08693 -1.56519,0 0,3.2608 c 0,0.69563 0.28261,1.04345 0.86955,1.04345 0.21739,0 0.3913,-0.0435 0.54346,-0.10869 l 0.41304,1.02172 c -0.28261,0.13043 -0.60868,0.17391 -0.97824,0.17391 z"
     id="path32"
     style="fill:#ffffff"
     inkscape:connector-curvature="0" /><path
     class="st0"
     d="m 74.99833,9.43457 -1.21736,0 -1.58693,-4.91293 -1.58692,4.91293 -1.21736,0 -2.06517,-6.39116 1.26084,0 1.41301,4.82598 0.0217,0 1.58693,-4.82598 1.2391,0 1.58692,4.82598 0.0217,0 1.41302,-4.82598 1.21736,0 -2.08691,6.39116 z"
     id="path34"
     style="fill:#ffffff"
     inkscape:connector-curvature="0" /><path
     class="st0"
     d="m 79.30259,1.45649 c -0.17391,0.17391 -0.36956,0.23912 -0.60869,0.23912 -0.23912,0 -0.43477,-0.087 -0.60868,-0.23912 C 77.91131,1.28258 77.8461,1.08693 77.8461,0.84781 c 0,-0.23913 0.087,-0.43478 0.23912,-0.60869 C 78.25913,0.06522 78.45478,0 78.6939,0 c 0.23913,0 0.43478,0.087 0.60869,0.23912 0.1739,0.17391 0.23912,0.36956 0.23912,0.60869 0,0.23912 -0.087,0.43477 -0.23912,0.60868 z m 0,7.97808 -1.19563,0 0,-6.39116 1.19563,0 0,6.39116 z"
     id="path36"
     style="fill:#ffffff"
     inkscape:connector-curvature="0" /><path
     class="st0"
     d="m 83.62857,9.54327 c -0.67389,0 -1.17388,-0.17391 -1.54344,-0.54347 C 81.73731,8.65198 81.56341,8.13025 81.56341,7.4781 l 0,-3.32602 -1.13042,0 0,-1.08693 1.13042,0 0,-1.95648 1.19562,0 0,1.95648 1.56519,0 0,1.08693 -1.56519,0 0,3.2608 c 0,0.69563 0.28261,1.04345 0.86954,1.04345 0.21739,0 0.3913,-0.0435 0.54347,-0.10869 l 0.41303,1.02172 c -0.26085,0.13043 -0.5652,0.17391 -0.9565,0.17391 z"
     id="path38"
     style="fill:#ffffff"
     inkscape:connector-curvature="0" /><path
     class="st0"
     d="m 86.82416,0.10869 0,2.95646 -0.0435,0.89128 0.0435,0 c 0.17391,-0.30434 0.4565,-0.5652 0.82606,-0.78259 0.36956,-0.21738 0.7826,-0.32608 1.19563,-0.32608 0.78259,0 1.39127,0.23913 1.80431,0.73911 0.41303,0.47826 0.63042,1.13042 0.63042,1.95648 l 0,3.91296 -1.19563,0 0,-3.73905 c 0,-1.17388 -0.52172,-1.78256 -1.58692,-1.78256 -0.49999,0 -0.89128,0.19564 -1.21737,0.58694 -0.30434,0.39129 -0.47824,0.8478 -0.47824,1.36953 l 0,3.5434 -1.19562,0 0,-9.34761 1.21736,0 z"
     id="path40"
     style="fill:#ffffff"
     inkscape:connector-curvature="0" /><g
     class="st17"
     id="g42"
     style="display:none"
     transform="translate(-318.70504,-154.51185)"><rect
       class="st18"
       x="-0.60000002"
       y="272"
       width="753.20001"
       height="64"
       id="rect44"
       style="display:inline;fill:#00ffff;fill-opacity:0.2" /><rect
       class="st18"
       x="-0.60000002"
       width="753.20001"
       height="64"
       id="rect46"
       y="0"
       style="display:inline;fill:#00ffff;fill-opacity:0.2" /><rect
       class="st18"
       x="688.5"
       width="64"
       height="336"
       id="rect48"
       y="0"
       style="display:inline;fill:#00ffff;fill-opacity:0.2" /><rect
       class="st18"
       x="196.3"
       width="48"
       height="336"
       id="rect50"
       y="0"
       style="display:inline;fill:#00ffff;fill-opacity:0.2" /><rect
       class="st18"
       x="-0.5"
       width="64"
       height="336"
       id="rect52"
       y="0"
       style="display:inline;fill:#00ffff;fill-opacity:0.2" /></g></svg>